<svg id="Composant_17_1" data-name="Composant 17 – 1" xmlns="http://www.w3.org/2000/svg" width="19.493" height="18.274" viewBox="0 0 19.493 18.274">
  <path id="Tracé_30" data-name="Tracé 30" d="M266.137,976.7l-7.31,7.919,1.791,1.653,7.31-7.919Zm-7.31-6.265,7.31,7.919,1.791-1.653-7.31-7.919Zm0,14.184a1.219,1.219,0,0,0,1.791,1.653Zm8.205-7.093.9.827a1.218,1.218,0,0,0,0-1.653Zm-6.414-8.745a1.219,1.219,0,1,0-1.791,1.653Z" transform="translate(-248.759 -968.39)" fill="#80ad03"/>
  <path id="Tracé_31" data-name="Tracé 31" d="M251.723,977.326h17.056V974.89H251.723Zm17.056,0a1.218,1.218,0,1,0,0-2.437Zm-17.056-2.437a1.218,1.218,0,1,0,0,2.437Z" transform="translate(-250.505 -966.971)" fill="#80ad03"/>
</svg>
