<svg xmlns="http://www.w3.org/2000/svg" width="8.875" height="23.393" viewBox="0 0 8.875 23.393">
  <g id="Groupe_212" data-name="Groupe 212" transform="translate(-1319 -1650)">
    <g id="Union_2" data-name="Union 2" transform="translate(1319 1655.547)" fill="#cff089">
      <path d="M 6.326019763946533 17.34570121765137 L 2.549289226531982 17.34570121765137 L 2.163622140884399 9.958551406860352 L 2.138882160186768 9.484622001647949 L 1.664302110671997 9.484622001647949 L 0.5000020861625671 9.484622001647949 L 0.5000020861625671 0.5000015497207642 L 8.375242233276367 0.5000015497207642 L 8.375242233276367 9.484622001647949 L 7.211912155151367 9.484622001647949 L 6.737391948699951 9.484622001647949 L 6.712592124938965 9.958491325378418 L 6.326019763946533 17.34570121765137 Z" stroke="none"/>
      <path d="M 5.851507186889648 16.84570121765137 L 6.262872219085693 8.984622001647949 L 7.875242233276367 8.984622001647949 L 7.875242233276367 1.000001549720764 L 1.000002026557922 1.000001549720764 L 1.000002026557922 8.984622001647949 L 2.613451957702637 8.984622001647949 L 3.023866415023804 16.84570121765137 L 5.851507186889648 16.84570121765137 M 6.800541877746582 17.84570121765137 L 2.074712038040161 17.84570121765137 L 1.664302110671997 9.984622001647949 L 2.0703125755972e-06 9.984622001647949 L 2.0703125755972e-06 1.56249996052793e-06 L 8.875242233276367 1.56249996052793e-06 L 8.875242233276367 9.984622001647949 L 7.211912155151367 9.984622001647949 L 6.800541877746582 17.84570121765137 Z" stroke="none" fill="#abd9eb"/>
    </g>
    <g id="Ellipse_8" data-name="Ellipse 8" transform="translate(1320.942 1650)" fill="#cff089" stroke="#abd9eb" stroke-width="1">
      <circle cx="2.496" cy="2.496" r="2.496" stroke="none"/>
      <circle cx="2.496" cy="2.496" r="1.996" fill="none"/>
    </g>
  </g>
</svg>
