<svg xmlns="http://www.w3.org/2000/svg" width="447.91" height="71.065" viewBox="0 0 447.91 71.065">
  <g id="Groupe_184" data-name="Groupe 184" transform="translate(-88 -25.992)">
    <g id="Groupe_181" data-name="Groupe 181" transform="translate(88 25.992)">
      <path id="Tracé_61" data-name="Tracé 61" d="M61.424,1.731V53.484a1.487,1.487,0,0,1-.771,1.3L31.211,70.936a1.042,1.042,0,0,1-1,0l-5.928-3.25a.782.782,0,0,1,0-1.37l28.694-15.74a1.485,1.485,0,0,0,.771-1.3V10.088a.833.833,0,0,0-.968-.822,139.282,139.282,0,0,1-44.127,0,.833.833,0,0,0-.968.822l0,39.185a1.485,1.485,0,0,0,.771,1.3L24,59.109a.745.745,0,0,1,0,1.307l-6.045,3.315a.917.917,0,0,1-.883,0L.773,54.747A1.486,1.486,0,0,1,0,53.446V7.6H0V1.087A1.088,1.088,0,0,1,1.336.028a131.591,131.591,0,0,0,58.747,0,1.088,1.088,0,0,1,1.336,1.059v.649Z" transform="translate(0 0)" fill="#117ba3"/>
      <path id="Tracé_62" data-name="Tracé 62" d="M54.11,36.8c0,7.495-5.033,11.374-12,11.374h-1.1a.787.787,0,0,1-.787-.787V42.229a.858.858,0,0,1,.858-.858h.143q.446,0,.853-.031c3.2-.243,4.542-1.9,4.542-4.542,0-2.992-1.679-4.652-5.494-4.652H26.034v1.967a.525.525,0,0,1-.875.392l-5.923-5.271a.96.96,0,0,1,0-1.435l5.923-5.271a.525.525,0,0,1,.875.393V24.89H42.112c6.965,0,12,4.329,12,11.909m-17.969-1h-5.93a.781.781,0,0,0-.77.791V57.82a1.314,1.314,0,0,0,.66,1.146l5.807,3.274a.678.678,0,0,0,1-.611V36.594a.781.781,0,0,0-.77-.791" transform="translate(-6.239 -7.387)" fill="#8db72f"/>
    </g>
    <g id="Groupe_182" data-name="Groupe 182" transform="translate(159.475 31.168)">
      <path id="Tracé_63" data-name="Tracé 63" d="M105.233,25.5h11.029c6.088,0,10.492,3.223,10.492,9.847,0,6.554-4.4,9.813-10.492,9.813H111.5V52h-6.267ZM115.4,39.645c3.33,0,4.8-1.432,4.8-4.3,0-2.937-1.469-4.369-4.8-4.369h-3.9v8.666Z" transform="translate(-105.233 -22.544)" fill="#e76a47"/>
      <path id="Tracé_64" data-name="Tracé 64" d="M154.774,43.619a5.742,5.742,0,0,0,4.655,3.4v5.121c-4.763,0-7.233-1.218-9.561-5.372L148.4,44.156h-4.691V52h-6.267V25.5h11.352c6.231,0,10.421,3.259,10.421,9.382a8.281,8.281,0,0,1-5.085,7.592ZM143.708,30.871v8.057h4.763c2.328,0,4.19-1.289,4.19-4.046,0-2.793-1.862-4.011-4.118-4.011Z" transform="translate(-113.008 -22.543)" fill="#e76a47"/>
      <path id="Tracé_65" data-name="Tracé 65" d="M171.381,25.5h19.774v5.479H177.648V35.92H187.6v5.3h-9.957v5.3h13.973V52h-20.24Z" transform="translate(-121.201 -22.544)" fill="#e76a47"/>
      <path id="Tracé_66" data-name="Tracé 66" d="M221.331,38.631c0-8.422,5.186-14.049,13.828-14.049a14.636,14.636,0,0,1,9.232,3.236l-2.612,4.56a9.615,9.615,0,0,0-6.436-2.17c-4.3,0-7.319,3.089-7.319,8.422,0,5.149,2.869,8.422,7.319,8.422A9,9,0,0,0,242.073,44l3.347,4.671c-2.905,2.832-6.509,4.008-11.032,4.008-8.091,0-13.056-5.664-13.056-14.049" transform="translate(-133.258 -22.322)" fill="#e76a47"/>
      <path id="Tracé_67" data-name="Tracé 67" d="M256.419,32h5.218l.6,3.416a6.374,6.374,0,0,1,5.63-3.9,6.225,6.225,0,0,1,2.29.413v5.819a8,8,0,0,0-2.627-.489c-3.041,0-4.768,1.651-4.768,5.668v10.4h-6.344Z" transform="translate(-141.728 -23.996)" fill="#e76a47"/>
      <path id="Tracé_68" data-name="Tracé 68" d="M276.016,42.676c0-7.019,3.941-11.111,11.486-11.111,7.507,0,11.486,4.091,11.486,11.111S295.009,53.786,287.5,53.786c-7.545,0-11.486-4.091-11.486-11.111m16.554,0c0-4.129-1.576-5.856-4.842-5.856s-4.842,1.727-4.842,5.856,1.576,5.856,4.842,5.856,4.842-1.727,4.842-5.856" transform="translate(-146.459 -24.008)" fill="#e76a47"/>
      <path id="Tracé_69" data-name="Tracé 69" d="M310.021,51.282V23.157l6.306-.1v9.872a6.289,6.289,0,0,1,6.081-3.416c4.617,0,7.432,2.853,7.432,8.709V51.282H323.5V38.22c0-2.215-1.127-3.341-3.191-3.341-2.516,0-3.942,1.314-3.942,4.58V51.282Z" transform="translate(-154.667 -21.954)" fill="#e76a47"/>
      <path id="Tracé_70" data-name="Tracé 70" d="M341.046,32.016h5.218l.6,3.416a6.9,6.9,0,0,1,6.494-3.867c4.842,0,7.507,2.853,7.507,8.709V53.336h-6.344V40.274c0-2.215-1.127-3.341-3.191-3.341-2.516,0-3.942,1.126-3.942,4.392V53.336h-6.343Z" transform="translate(-162.156 -24.008)" fill="#e76a47"/>
      <path id="Tracé_71" data-name="Tracé 71" d="M376.482,51.234l2.214-4.316a12.265,12.265,0,0,0,5.968,1.614c1.99,0,2.853-.338,2.853-1.238,0-.864-1.089-1.427-2.965-1.99-4.091-1.239-7.47-2.628-7.47-6.944,0-4.129,2.778-6.794,8.108-6.794a16.461,16.461,0,0,1,7.845,1.614l-1.764,4.579a17.119,17.119,0,0,0-5.442-1.051c-1.54,0-2.29.488-2.29,1.239,0,.825.713,1.314,2.516,1.877,4.692,1.5,7.92,2.927,7.92,7.47,0,3.528-2.741,6.494-8.822,6.494a14.061,14.061,0,0,1-8.67-2.553" transform="translate(-170.71 -24.008)" fill="#e76a47"/>
      <path id="Tracé_72" data-name="Tracé 72" d="M369.047,21.6v4.342h1.674a13.461,13.461,0,0,1-1.207,4.975h3.777a10.728,10.728,0,0,0,2.007-4.592,8.311,8.311,0,0,0-.4-4.725Z" transform="translate(-168.916 -21.603)" fill="#e76a47"/>
      <rect id="Rectangle_33" data-name="Rectangle 33" width="10.463" height="5.562" transform="translate(73.007 13.408)" fill="#e76a47"/>
    </g>
    <g id="Groupe_183" data-name="Groupe 183" transform="translate(159.475 68.108)">
      <path id="Tracé_73" data-name="Tracé 73" d="M419.612,33.983a3.758,3.758,0,0,1-4.048,3.934H411.94v3.574h-1.582V30.066h5.206a3.754,3.754,0,0,1,4.048,3.917m-1.567,0a2.346,2.346,0,0,0-2.563-2.449H411.94v4.913h3.542a2.358,2.358,0,0,0,2.563-2.464" transform="translate(-410.358 -29.822)" fill="#117ba3"/>
      <path id="Tracé_74" data-name="Tracé 74" d="M429.441,38.256h-6.677a2.508,2.508,0,0,0,2.759,2.237,3.326,3.326,0,0,0,2.448-.947l.979.931a4.624,4.624,0,0,1-3.46,1.421,4.015,4.015,0,0,1-4.293-4.244,3.959,3.959,0,0,1,4.13-4.2c2.775,0,4.342,1.829,4.114,4.8m-6.66-1.289H428a2.4,2.4,0,0,0-2.628-2.154,2.45,2.45,0,0,0-2.595,2.154" transform="translate(-410.973 -30.014)" fill="#117ba3"/>
      <path id="Tracé_75" data-name="Tracé 75" d="M437.586,34.112l-.686,1.273a2.411,2.411,0,0,0-1.371-.425c-1.387,0-2.3,1.094-2.3,2.759v3.966H431.71V33.621h1.355l.017,1.356a2.836,2.836,0,0,1,2.53-1.5,3.176,3.176,0,0,1,1.974.637" transform="translate(-411.569 -30.015)" fill="#117ba3"/>
      <path id="Tracé_76" data-name="Tracé 76" d="M438.495,40.622l.766-1.126a4.433,4.433,0,0,0,2.89,1c1.158,0,1.877-.408,1.877-1.093,0-.653-.572-.963-2.023-1.143-2.171-.26-3.249-1.06-3.249-2.415,0-1.437,1.371-2.4,3.428-2.4a5.24,5.24,0,0,1,3.167.963l-.7,1.11a3.981,3.981,0,0,0-2.4-.751c-1.305,0-2.008.375-2.008,1.06,0,.6.523.914,1.894,1.093,2.4.31,3.395,1.029,3.395,2.5,0,1.453-1.371,2.448-3.411,2.448a5.742,5.742,0,0,1-3.624-1.239" transform="translate(-411.954 -30.013)" fill="#117ba3"/>
      <path id="Tracé_77" data-name="Tracé 77" d="M447.158,37.652a4.252,4.252,0,1,1,4.26,4.211,4.058,4.058,0,0,1-4.26-4.211m6.986,0a2.735,2.735,0,1,0-2.726,2.807,2.69,2.69,0,0,0,2.726-2.807" transform="translate(-412.445 -30.013)" fill="#117ba3"/>
      <path id="Tracé_78" data-name="Tracé 78" d="M465.716,37.212v4.472H464.2V37.31c0-1.551-.8-2.432-2.171-2.432a2.413,2.413,0,0,0-2.5,2.513v4.293h-1.518V33.621h1.355l.016,1.127a3.608,3.608,0,0,1,2.873-1.273c2.089,0,3.46,1.453,3.46,3.737" transform="translate(-413.061 -30.015)" fill="#117ba3"/>
      <path id="Tracé_79" data-name="Tracé 79" d="M476.351,33.62v8.062h-1.339L475,40.492a3.759,3.759,0,0,1-3.069,1.371,3.948,3.948,0,0,1-4.032-4.211,3.948,3.948,0,0,1,4.032-4.212A3.756,3.756,0,0,1,475,34.812l.015-1.191Zm-1.517,4.032a2.711,2.711,0,1,0-2.71,2.807,2.641,2.641,0,0,0,2.71-2.807" transform="translate(-413.621 -30.013)" fill="#117ba3"/>
      <rect id="Rectangle_34" data-name="Rectangle 34" width="1.518" height="11.425" transform="translate(64.947 0.244)" fill="#117ba3"/>
      <path id="Tracé_80" data-name="Tracé 80" d="M482.877,31.043a1.029,1.029,0,0,1,2.057,0,.979.979,0,0,1-1.028,1,.989.989,0,0,1-1.029-1m.262,2.383h1.518v8.063h-1.518Z" transform="translate(-414.471 -29.82)" fill="#117ba3"/>
      <path id="Tracé_81" data-name="Tracé 81" d="M493.11,40.257v1.436h-6.839v-.62l4.456-6.023h-4.179v-1.42h6.528v.6L488.6,40.257Z" transform="translate(-414.663 -30.024)" fill="#117ba3"/>
      <path id="Tracé_82" data-name="Tracé 82" d="M502.739,38.256h-6.677a2.508,2.508,0,0,0,2.758,2.237,3.327,3.327,0,0,0,2.449-.947l.979.931a4.624,4.624,0,0,1-3.46,1.421,4.015,4.015,0,0,1-4.293-4.244,3.959,3.959,0,0,1,4.13-4.2c2.775,0,4.342,1.829,4.114,4.8m-6.66-1.289H501.3a2.4,2.4,0,0,0-2.628-2.154,2.451,2.451,0,0,0-2.595,2.154" transform="translate(-415.13 -30.014)" fill="#117ba3"/>
      <path id="Tracé_83" data-name="Tracé 83" d="M513,30.066V41.491h-1.355l-.016-1.19a3.746,3.746,0,0,1-3.085,1.371,3.916,3.916,0,0,1-4-4.211,3.916,3.916,0,0,1,4-4.212,3.791,3.791,0,0,1,2.937,1.192V30.066Zm-1.518,7.394a2.711,2.711,0,1,0-2.709,2.807,2.649,2.649,0,0,0,2.709-2.807" transform="translate(-415.7 -29.822)" fill="#117ba3"/>
      <path id="Tracé_84" data-name="Tracé 84" d="M524.85,37.476h-2.6v4.016h-1.583V30.066h5.256c2.4,0,3.982,1.469,3.982,3.705a3.521,3.521,0,0,1-3.133,3.64l3.607,4.08h-2.023Zm-2.6-5.924v4.439h3.706a2.224,2.224,0,1,0,0-4.439Z" transform="translate(-416.614 -29.822)" fill="#117ba3"/>
      <path id="Tracé_85" data-name="Tracé 85" d="M532.3,31.043a.991.991,0,0,1,1.029-1.011,1,1,0,1,1-1.029,1.011m.262,2.383h1.518v8.063H532.56Z" transform="translate(-417.273 -29.82)" fill="#117ba3"/>
      <path id="Tracé_86" data-name="Tracé 86" d="M535.873,40.622l.767-1.126a4.428,4.428,0,0,0,2.889,1c1.158,0,1.877-.408,1.877-1.093,0-.653-.571-.963-2.023-1.143-2.171-.26-3.249-1.06-3.249-2.415,0-1.437,1.371-2.4,3.428-2.4a5.24,5.24,0,0,1,3.167.963l-.7,1.11a3.98,3.98,0,0,0-2.4-.751c-1.306,0-2.007.375-2.007,1.06,0,.6.522.914,1.893,1.093,2.4.31,3.395,1.029,3.395,2.5,0,1.453-1.371,2.448-3.411,2.448a5.742,5.742,0,0,1-3.624-1.239" transform="translate(-417.476 -30.013)" fill="#117ba3"/>
      <path id="Tracé_87" data-name="Tracé 87" d="M550.137,41.491l-3.542-3.672v3.672h-1.518V30.066h1.518v6.839l3.167-3.477h1.909l-3.591,3.884,4.1,4.179Z" transform="translate(-417.998 -29.822)" fill="#117ba3"/>
      <path id="Tracé_88" data-name="Tracé 88" d="M566.856,40.006v1.485h-8.373V30.066h8.274v1.47h-6.692v3.443h6.4v1.453h-6.4v3.575Z" transform="translate(-418.758 -29.822)" fill="#117ba3"/>
      <path id="Tracé_89" data-name="Tracé 89" d="M568.857,40.622l.767-1.126a4.428,4.428,0,0,0,2.889,1c1.158,0,1.877-.408,1.877-1.093,0-.653-.571-.963-2.023-1.143-2.171-.26-3.249-1.06-3.249-2.415,0-1.437,1.371-2.4,3.428-2.4a5.24,5.24,0,0,1,3.167.963l-.7,1.11a3.981,3.981,0,0,0-2.4-.751c-1.306,0-2.007.375-2.007,1.06,0,.6.522.914,1.893,1.093,2.4.31,3.395,1.029,3.395,2.5,0,1.453-1.37,2.448-3.411,2.448a5.741,5.741,0,0,1-3.624-1.239" transform="translate(-419.347 -30.013)" fill="#117ba3"/>
      <path id="Tracé_90" data-name="Tracé 90" d="M583.277,41.293a4.027,4.027,0,0,1-1.714.374c-1.7,0-2.547-.979-2.547-2.791V34.812h-1.583V33.491h1.583V31.32l1.5-.164v2.335h2.449v1.322h-2.449v4.064c0,.9.342,1.421,1.224,1.421a2.968,2.968,0,0,0,1.093-.261Z" transform="translate(-419.833 -29.884)" fill="#117ba3"/>
      <path id="Tracé_91" data-name="Tracé 91" d="M584.745,31.043a.991.991,0,0,1,1.029-1.011,1,1,0,1,1-1.029,1.011m.262,2.383h1.518v8.063h-1.518Z" transform="translate(-420.248 -29.82)" fill="#117ba3"/>
      <path id="Tracé_92" data-name="Tracé 92" d="M601.743,37v4.684h-1.518V37.1c0-1.437-.67-2.22-1.894-2.22a2.16,2.16,0,0,0-2.219,2.318v4.488h-1.518V37.1c0-1.437-.67-2.22-1.894-2.22a2.168,2.168,0,0,0-2.219,2.318v4.488h-1.519V33.621h1.355l.016,1.044a2.9,2.9,0,0,1,2.449-1.19,2.871,2.871,0,0,1,2.693,1.534,3.267,3.267,0,0,1,2.921-1.534c2.072,0,3.347,1.322,3.347,3.525" transform="translate(-420.487 -30.015)" fill="#117ba3"/>
      <path id="Tracé_93" data-name="Tracé 93" d="M612.7,33.62v8.062H611.36l-.015-1.19a3.758,3.758,0,0,1-3.068,1.371,3.948,3.948,0,0,1-4.032-4.211,3.949,3.949,0,0,1,4.032-4.212,3.756,3.756,0,0,1,3.068,1.372l.015-1.191Zm-1.517,4.032a2.711,2.711,0,1,0-2.71,2.807,2.641,2.641,0,0,0,2.71-2.807" transform="translate(-421.354 -30.013)" fill="#117ba3"/>
      <path id="Tracé_94" data-name="Tracé 94" d="M620.591,41.293a4.027,4.027,0,0,1-1.714.374c-1.7,0-2.547-.979-2.547-2.791V34.812h-1.583V33.491h1.583V31.32l1.5-.164v2.335h2.449v1.322h-2.449v4.064c0,.9.342,1.421,1.224,1.421a2.969,2.969,0,0,0,1.093-.261Z" transform="translate(-421.949 -29.884)" fill="#117ba3"/>
      <path id="Tracé_95" data-name="Tracé 95" d="M622.059,31.043a1.029,1.029,0,0,1,2.057,0,1.029,1.029,0,0,1-2.057,0m.261,2.383h1.518v8.063H622.32Z" transform="translate(-422.364 -29.82)" fill="#117ba3"/>
      <path id="Tracé_96" data-name="Tracé 96" d="M625.717,37.652a4.252,4.252,0,1,1,4.26,4.211,4.058,4.058,0,0,1-4.26-4.211m6.986,0a2.735,2.735,0,1,0-2.726,2.807,2.69,2.69,0,0,0,2.726-2.807" transform="translate(-422.571 -30.013)" fill="#117ba3"/>
      <path id="Tracé_97" data-name="Tracé 97" d="M644.275,37.212v4.472h-1.518V37.31c0-1.551-.8-2.432-2.17-2.432a2.413,2.413,0,0,0-2.5,2.513v4.293h-1.518V33.621h1.355l.016,1.127a3.608,3.608,0,0,1,2.873-1.273c2.089,0,3.46,1.453,3.46,3.737" transform="translate(-423.187 -30.015)" fill="#117ba3"/>
      <path id="Tracé_98" data-name="Tracé 98" d="M411.946,50.476v.571h2.481v1.339h-2.481V59.11h-1.518V52.386h-1.551V51.047h1.551v-.571a2.684,2.684,0,0,1,2.807-2.987,3.157,3.157,0,0,1,1.926.653l-.621,1.094a2.021,2.021,0,0,0-1.224-.424c-.816,0-1.371.49-1.371,1.665" transform="translate(-181.855 -47.457)" fill="#117ba3"/>
      <path id="Tracé_99" data-name="Tracé 99" d="M415.47,55.282a4.252,4.252,0,1,1,4.26,4.211,4.058,4.058,0,0,1-4.26-4.211m6.986,0a2.735,2.735,0,1,0-2.726,2.807,2.69,2.69,0,0,0,2.726-2.807" transform="translate(-182.229 -47.66)" fill="#117ba3"/>
      <path id="Tracé_100" data-name="Tracé 100" d="M432.2,51.742l-.686,1.273a2.409,2.409,0,0,0-1.371-.424c-1.387,0-2.3,1.093-2.3,2.758v3.967h-1.519V51.252h1.355l.017,1.355a2.836,2.836,0,0,1,2.53-1.5,3.17,3.17,0,0,1,1.974.637" transform="translate(-182.844 -47.662)" fill="#117ba3"/>
      <path id="Tracé_101" data-name="Tracé 101" d="M437.743,53.4A5.933,5.933,0,0,1,447.9,49.217L446.8,50.2a4.115,4.115,0,0,0-3.069-1.256,4.457,4.457,0,0,0,0,8.912,4.566,4.566,0,0,0,3.183-1.273l1.044,1.061a5.913,5.913,0,0,1-4.277,1.7,5.7,5.7,0,0,1-5.941-5.941" transform="translate(-183.492 -47.455)" fill="#117ba3"/>
      <path id="Tracé_102" data-name="Tracé 102" d="M456.058,51.742l-.686,1.273A2.409,2.409,0,0,0,454,52.591c-1.387,0-2.3,1.093-2.3,2.758v3.967h-1.519V51.252h1.355l.017,1.355a2.836,2.836,0,0,1,2.53-1.5,3.17,3.17,0,0,1,1.974.637" transform="translate(-184.197 -47.662)" fill="#117ba3"/>
      <path id="Tracé_103" data-name="Tracé 103" d="M456.81,55.282a4.252,4.252,0,1,1,4.26,4.211,4.058,4.058,0,0,1-4.26-4.211m6.986,0a2.735,2.735,0,1,0-2.726,2.807,2.69,2.69,0,0,0,2.726-2.807" transform="translate(-184.573 -47.66)" fill="#117ba3"/>
      <path id="Tracé_104" data-name="Tracé 104" d="M475.369,54.65v4.472h-1.518V54.748c0-1.551-.8-2.432-2.17-2.432a2.413,2.413,0,0,0-2.5,2.513v4.293h-1.517V47.7h1.517V52.1a3.443,3.443,0,0,1,2.727-1.191c2.121,0,3.46,1.453,3.46,3.737" transform="translate(-185.189 -47.469)" fill="#117ba3"/>
      <path id="Tracé_105" data-name="Tracé 105" d="M485.789,54.843v4.472h-1.518V54.941c0-1.551-.8-2.432-2.17-2.432a2.412,2.412,0,0,0-2.5,2.513v4.293h-1.518V51.252h1.355l.016,1.126a3.61,3.61,0,0,1,2.873-1.272c2.089,0,3.46,1.453,3.46,3.737" transform="translate(-185.78 -47.662)" fill="#117ba3"/>
      <path id="Tracé_106" data-name="Tracé 106" d="M489.668,48.439a6.832,6.832,0,0,1-.783,2.465h-.849l.424-1.7a.774.774,0,0,1-.572-.767.862.862,0,0,1,.9-.882.849.849,0,0,1,.882.882" transform="translate(-186.336 -47.461)" fill="#117ba3"/>
      <path id="Tracé_107" data-name="Tracé 107" d="M490.587,58.252l.767-1.126a4.428,4.428,0,0,0,2.889,1c1.158,0,1.877-.408,1.877-1.093,0-.653-.571-.963-2.023-1.142-2.171-.261-3.249-1.061-3.249-2.416,0-1.437,1.371-2.4,3.428-2.4a5.24,5.24,0,0,1,3.167.963l-.7,1.11a3.98,3.98,0,0,0-2.4-.751c-1.305,0-2.007.375-2.007,1.061,0,.6.522.913,1.893,1.093,2.4.31,3.395,1.028,3.395,2.5,0,1.453-1.371,2.449-3.411,2.449a5.737,5.737,0,0,1-3.624-1.24" transform="translate(-186.489 -47.66)" fill="#117ba3"/>
      <path id="Tracé_108" data-name="Tracé 108" d="M514.555,53.41a5.441,5.441,0,0,1-5.746,5.713h-4.244V47.7h4.244a5.44,5.44,0,0,1,5.746,5.713m-1.617,0a3.993,3.993,0,0,0-4.129-4.227h-2.661v8.454h2.661a3.984,3.984,0,0,0,4.129-4.227" transform="translate(-187.282 -47.469)" fill="#117ba3"/>
      <path id="Tracé_109" data-name="Tracé 109" d="M516.872,48.674a.992.992,0,0,1,1.029-1.012,1,1,0,1,1-1.029,1.012m.262,2.383h1.518V59.12h-1.518Z" transform="translate(-187.979 -47.467)" fill="#117ba3"/>
      <path id="Tracé_110" data-name="Tracé 110" d="M520.448,58.252l.767-1.126a4.428,4.428,0,0,0,2.889,1c1.158,0,1.877-.408,1.877-1.093,0-.653-.571-.963-2.023-1.142-2.171-.261-3.249-1.061-3.249-2.416,0-1.437,1.371-2.4,3.428-2.4a5.24,5.24,0,0,1,3.167.963l-.7,1.11a3.98,3.98,0,0,0-2.4-.751c-1.306,0-2.007.375-2.007,1.061,0,.6.522.913,1.893,1.093,2.4.31,3.395,1.028,3.395,2.5,0,1.453-1.371,2.449-3.411,2.449a5.737,5.737,0,0,1-3.624-1.24" transform="translate(-188.182 -47.66)" fill="#117ba3"/>
      <path id="Tracé_111" data-name="Tracé 111" d="M537.362,55.887h-6.677a2.508,2.508,0,0,0,2.759,2.236,3.33,3.33,0,0,0,2.448-.946l.979.93a4.624,4.624,0,0,1-3.46,1.421,4.015,4.015,0,0,1-4.293-4.244,3.958,3.958,0,0,1,4.13-4.195c2.775,0,4.342,1.827,4.114,4.8M530.7,54.6h5.223a2.4,2.4,0,0,0-2.628-2.154,2.45,2.45,0,0,0-2.6,2.154" transform="translate(-188.674 -47.661)" fill="#117ba3"/>
      <path id="Tracé_112" data-name="Tracé 112" d="M547.62,51.25v8.063h-1.339l-.015-1.191a3.756,3.756,0,0,1-3.068,1.371,4.215,4.215,0,0,1,0-8.422,3.756,3.756,0,0,1,3.068,1.371l.015-1.191ZM546.1,55.282a2.711,2.711,0,1,0-2.71,2.807,2.64,2.64,0,0,0,2.71-2.807" transform="translate(-189.244 -47.66)" fill="#117ba3"/>
      <path id="Tracé_113" data-name="Tracé 113" d="M549.84,58.252l.767-1.126a4.428,4.428,0,0,0,2.889,1c1.158,0,1.877-.408,1.877-1.093,0-.653-.571-.963-2.023-1.142-2.172-.261-3.249-1.061-3.249-2.416,0-1.437,1.371-2.4,3.428-2.4a5.239,5.239,0,0,1,3.167.963l-.7,1.11a3.98,3.98,0,0,0-2.4-.751c-1.306,0-2.007.375-2.007,1.061,0,.6.522.913,1.893,1.093,2.4.31,3.395,1.028,3.395,2.5,0,1.453-1.371,2.449-3.411,2.449a5.737,5.737,0,0,1-3.624-1.24" transform="translate(-189.849 -47.66)" fill="#117ba3"/>
      <path id="Tracé_114" data-name="Tracé 114" d="M566.755,55.887h-6.677a2.508,2.508,0,0,0,2.758,2.236,3.33,3.33,0,0,0,2.449-.946l.979.93a4.624,4.624,0,0,1-3.46,1.421,4.015,4.015,0,0,1-4.293-4.244,3.958,3.958,0,0,1,4.13-4.195c2.775,0,4.342,1.827,4.114,4.8m-6.66-1.289h5.223a2.4,2.4,0,0,0-2.628-2.154,2.451,2.451,0,0,0-2.595,2.154" transform="translate(-190.341 -47.661)" fill="#117ba3"/>
    </g>
  </g>
</svg>
