<svg xmlns="http://www.w3.org/2000/svg" width="245.189" height="58.877" viewBox="0 0 245.189 58.877">
  <g id="Groupe_185" data-name="Groupe 185" transform="translate(-87 -27.992)">
    <g id="Groupe_181" data-name="Groupe 181" transform="translate(87 27.992)">
      <path id="Tracé_61" data-name="Tracé 61" d="M50.89,1.434V44.311a1.232,1.232,0,0,1-.639,1.079L25.858,58.77a.863.863,0,0,1-.831,0l-4.911-2.693a.648.648,0,0,1,0-1.135L43.889,41.9a1.23,1.23,0,0,0,.639-1.079V8.357a.69.69,0,0,0-.8-.681,115.394,115.394,0,0,1-36.559,0,.69.69,0,0,0-.8.681l0,32.464A1.23,1.23,0,0,0,7,41.9l12.887,7.071a.617.617,0,0,1,0,1.083L14.879,52.8a.76.76,0,0,1-.732,0L.641,45.357A1.232,1.232,0,0,1,0,44.28V6.294H0V.9A.9.9,0,0,1,1.107.023a109.022,109.022,0,0,0,48.671,0A.9.9,0,0,1,50.886.9v.537Z" transform="translate(0 0)" fill="#117ba3"/>
      <path id="Tracé_62" data-name="Tracé 62" d="M48.074,34.328c0,6.209-4.17,9.424-9.94,9.424h-.912a.652.652,0,0,1-.652-.652V38.827a.711.711,0,0,1,.711-.711H37.4q.37,0,.707-.026c2.65-.2,3.763-1.576,3.763-3.763,0-2.479-1.391-3.854-4.552-3.854h-12.5V32.1a.435.435,0,0,1-.725.325l-4.907-4.367a.8.8,0,0,1,0-1.189l4.907-4.367a.435.435,0,0,1,.725.325v1.631H38.133c5.77,0,9.94,3.587,9.94,9.867M33.187,33.5H28.274a.647.647,0,0,0-.638.656V51.744a1.089,1.089,0,0,0,.547.949l4.811,2.712a.562.562,0,0,0,.831-.506V34.159a.647.647,0,0,0-.638-.656" transform="translate(-8.413 -9.961)" fill="#8db72f"/>
    </g>
    <g id="Groupe_182" data-name="Groupe 182" transform="translate(147.216 30.28)">
      <path id="Tracé_63" data-name="Tracé 63" d="M105.233,25.5h9.138c5.044,0,8.693,2.67,8.693,8.159,0,5.43-3.649,8.13-8.693,8.13h-3.946v5.667h-5.192Zm8.426,11.719c2.759,0,3.976-1.187,3.976-3.56,0-2.433-1.217-3.62-3.976-3.62h-3.234v7.18Z" transform="translate(-105.233 -23.051)" fill="#e76a47"/>
      <path id="Tracé_64" data-name="Tracé 64" d="M151.8,40.511a4.757,4.757,0,0,0,3.856,2.819v4.242c-3.946,0-5.993-1.009-7.922-4.45l-1.216-2.166h-3.887v6.5h-5.192V25.5h9.4c5.163,0,8.634,2.7,8.634,7.773a6.86,6.86,0,0,1-4.213,6.29Zm-9.168-10.562v6.675h3.946a3.16,3.16,0,0,0,3.471-3.352,3.1,3.1,0,0,0-3.412-3.323Z" transform="translate(-117.198 -23.05)" fill="#e76a47"/>
      <path id="Tracé_65" data-name="Tracé 65" d="M171.381,25.5h16.383v4.539h-11.19v4.095h8.249v4.391h-8.249v4.391H188.15v4.539H171.381Z" transform="translate(-129.807 -23.05)" fill="#e76a47"/>
      <path id="Tracé_66" data-name="Tracé 66" d="M221.331,36.221c0-6.978,4.3-11.639,11.456-11.639a12.126,12.126,0,0,1,7.649,2.681l-2.164,3.778a7.966,7.966,0,0,0-5.332-1.8c-3.565,0-6.064,2.559-6.064,6.978,0,4.266,2.377,6.978,6.064,6.978a7.453,7.453,0,0,0,5.575-2.529l2.773,3.87c-2.407,2.346-5.393,3.321-9.14,3.321-6.7,0-10.817-4.692-10.817-11.639" transform="translate(-148.363 -22.71)" fill="#e76a47"/>
      <path id="Tracé_67" data-name="Tracé 67" d="M256.419,31.92h4.323l.5,2.83a5.281,5.281,0,0,1,4.664-3.234,5.158,5.158,0,0,1,1.9.342v4.821a6.627,6.627,0,0,0-2.176-.4c-2.52,0-3.95,1.368-3.95,4.7v8.614h-5.256Z" transform="translate(-161.398 -25.286)" fill="#e76a47"/>
      <path id="Tracé_68" data-name="Tracé 68" d="M276.016,40.77c0-5.816,3.265-9.205,9.516-9.205,6.22,0,9.516,3.39,9.516,9.205s-3.3,9.205-9.516,9.205c-6.251,0-9.516-3.39-9.516-9.205m13.715,0c0-3.421-1.306-4.851-4.012-4.851s-4.012,1.43-4.012,4.851,1.306,4.851,4.012,4.851,4.012-1.43,4.012-4.851" transform="translate(-168.678 -25.304)" fill="#e76a47"/>
      <path id="Tracé_69" data-name="Tracé 69" d="M310.021,46.441V23.14l5.225-.085v8.179a5.211,5.211,0,0,1,5.038-2.83c3.825,0,6.157,2.364,6.157,7.215V46.441h-5.256V35.619c0-1.835-.933-2.768-2.643-2.768-2.084,0-3.266,1.089-3.266,3.794v9.8Z" transform="translate(-181.311 -22.142)" fill="#e76a47"/>
      <path id="Tracé_70" data-name="Tracé 70" d="M341.046,31.938h4.323l.5,2.83a5.717,5.717,0,0,1,5.381-3.2c4.012,0,6.22,2.364,6.22,7.215V49.6h-5.256V38.78c0-1.835-.933-2.768-2.643-2.768-2.084,0-3.266.933-3.266,3.638V49.6h-5.255Z" transform="translate(-192.837 -25.304)" fill="#e76a47"/>
      <path id="Tracé_71" data-name="Tracé 71" d="M376.482,47.861l1.835-3.576a10.161,10.161,0,0,0,4.944,1.337c1.649,0,2.364-.28,2.364-1.026,0-.716-.9-1.182-2.457-1.649-3.389-1.026-6.189-2.177-6.189-5.753,0-3.421,2.3-5.629,6.717-5.629a13.638,13.638,0,0,1,6.5,1.337L388.735,36.7a14.182,14.182,0,0,0-4.509-.87c-1.276,0-1.9.4-1.9,1.026,0,.684.591,1.089,2.084,1.555,3.887,1.244,6.562,2.425,6.562,6.189,0,2.923-2.271,5.38-7.309,5.38a11.649,11.649,0,0,1-7.183-2.115" transform="translate(-206.001 -25.304)" fill="#e76a47"/>
      <path id="Tracé_72" data-name="Tracé 72" d="M369.047,21.6v3.6h1.387a11.152,11.152,0,0,1-1,4.122h3.129a8.889,8.889,0,0,0,1.663-3.8,6.886,6.886,0,0,0-.334-3.915Z" transform="translate(-203.239 -21.603)" fill="#e76a47"/>
      <rect id="Rectangle_33" data-name="Rectangle 33" width="8.669" height="4.608" transform="translate(60.486 11.108)" fill="#e76a47"/>
    </g>
    <g id="Groupe_183" data-name="Groupe 183" transform="translate(147.216 60.885)">
      <path id="Tracé_73" data-name="Tracé 73" d="M418.025,33.312a3.114,3.114,0,0,1-3.353,3.259h-3v2.961h-1.311V30.066h4.313a3.11,3.11,0,0,1,3.353,3.246m-1.3,0a1.944,1.944,0,0,0-2.123-2.029h-2.935v4.07H414.6a1.953,1.953,0,0,0,2.123-2.041" transform="translate(-410.358 -29.864)" fill="#117ba3"/>
      <path id="Tracé_74" data-name="Tracé 74" d="M428.028,37.433H422.5a2.078,2.078,0,0,0,2.286,1.853,2.756,2.756,0,0,0,2.028-.785l.811.771a3.831,3.831,0,0,1-2.867,1.177,3.326,3.326,0,0,1-3.557-3.516,3.28,3.28,0,0,1,3.422-3.476c2.3,0,3.6,1.515,3.408,3.976m-5.517-1.068h4.327a1.986,1.986,0,0,0-2.177-1.785,2.03,2.03,0,0,0-2.15,1.785" transform="translate(-412.727 -30.605)" fill="#117ba3"/>
      <path id="Tracé_75" data-name="Tracé 75" d="M436.578,34l-.568,1.055a2,2,0,0,0-1.135-.352c-1.149,0-1.906.907-1.906,2.286v3.285H431.71V33.6h1.122l.014,1.123a2.349,2.349,0,0,1,2.1-1.244,2.631,2.631,0,0,1,1.636.528" transform="translate(-415.023 -30.608)" fill="#117ba3"/>
      <path id="Tracé_76" data-name="Tracé 76" d="M438.495,39.39l.635-.933a3.672,3.672,0,0,0,2.395.824c.96,0,1.555-.338,1.555-.906,0-.541-.474-.8-1.676-.947-1.8-.216-2.691-.878-2.691-2,0-1.19,1.136-1.988,2.84-1.988a4.341,4.341,0,0,1,2.624.8l-.582.92a3.3,3.3,0,0,0-1.987-.622c-1.082,0-1.664.311-1.664.878,0,.5.433.757,1.569.906,1.987.257,2.813.853,2.813,2.069s-1.136,2.028-2.826,2.028a4.757,4.757,0,0,1-3-1.027" transform="translate(-416.506 -30.601)" fill="#117ba3"/>
      <path id="Tracé_77" data-name="Tracé 77" d="M447.158,36.929a3.523,3.523,0,1,1,3.529,3.489,3.362,3.362,0,0,1-3.529-3.489m5.788,0a2.266,2.266,0,1,0-2.258,2.326,2.228,2.228,0,0,0,2.258-2.326" transform="translate(-418.399 -30.601)" fill="#117ba3"/>
      <path id="Tracé_78" data-name="Tracé 78" d="M464.395,36.571v3.705h-1.257V36.653c0-1.285-.663-2.015-1.8-2.015a2,2,0,0,0-2.069,2.082v3.557h-1.257V33.6h1.122l.013.934a2.989,2.989,0,0,1,2.38-1.055,2.8,2.8,0,0,1,2.867,3.1" transform="translate(-420.77 -30.608)" fill="#117ba3"/>
      <path id="Tracé_79" data-name="Tracé 79" d="M474.9,33.589v6.68h-1.109l-.013-.986a3.114,3.114,0,0,1-2.542,1.136,3.271,3.271,0,0,1-3.34-3.489,3.271,3.271,0,0,1,3.34-3.489,3.112,3.112,0,0,1,2.542,1.136l.013-.987Zm-1.257,3.34a2.246,2.246,0,1,0-2.245,2.326,2.188,2.188,0,0,0,2.245-2.326" transform="translate(-422.93 -30.601)" fill="#117ba3"/>
      <rect id="Rectangle_34" data-name="Rectangle 34" width="1.257" height="9.466" transform="translate(53.808 0.202)" fill="#117ba3"/>
      <path id="Tracé_80" data-name="Tracé 80" d="M482.877,30.87a.852.852,0,0,1,1.7,0,.811.811,0,0,1-.852.825.819.819,0,0,1-.853-.825m.217,1.974h1.258v6.68h-1.258Z" transform="translate(-426.203 -29.856)" fill="#117ba3"/>
      <path id="Tracé_81" data-name="Tracé 81" d="M491.937,39.121V40.31h-5.666V39.8l3.692-4.99H486.5V33.631h5.409v.5l-3.705,4.99Z" transform="translate(-426.944 -30.643)" fill="#117ba3"/>
      <path id="Tracé_82" data-name="Tracé 82" d="M501.326,37.433h-5.531a2.078,2.078,0,0,0,2.285,1.853,2.757,2.757,0,0,0,2.029-.785l.811.771a3.831,3.831,0,0,1-2.867,1.177,3.326,3.326,0,0,1-3.557-3.516,3.28,3.28,0,0,1,3.421-3.476c2.3,0,3.6,1.515,3.408,3.976m-5.517-1.068h4.327a1.986,1.986,0,0,0-2.177-1.785,2.03,2.03,0,0,0-2.15,1.785" transform="translate(-428.741 -30.605)" fill="#117ba3"/>
      <path id="Tracé_83" data-name="Tracé 83" d="M511.552,30.066v9.466h-1.122l-.013-.986a3.1,3.1,0,0,1-2.556,1.136,3.244,3.244,0,0,1-3.314-3.489,3.245,3.245,0,0,1,3.314-3.489,3.141,3.141,0,0,1,2.434.988V30.066Zm-1.257,6.126a2.246,2.246,0,1,0-2.245,2.326,2.195,2.195,0,0,0,2.245-2.326" transform="translate(-430.938 -29.864)" fill="#117ba3"/>
      <path id="Tracé_84" data-name="Tracé 84" d="M524.133,36.2h-2.151v3.327h-1.311V30.066h4.355a3,3,0,0,1,3.3,3.07,2.917,2.917,0,0,1-2.6,3.016l2.988,3.38H527.04ZM521.982,31.3v3.678h3.071a1.843,1.843,0,1,0,0-3.678Z" transform="translate(-434.46 -29.864)" fill="#117ba3"/>
      <path id="Tracé_85" data-name="Tracé 85" d="M532.3,30.87a.821.821,0,0,1,.853-.838.832.832,0,1,1-.853.838m.217,1.974h1.257v6.68h-1.257Z" transform="translate(-437.001 -29.856)" fill="#117ba3"/>
      <path id="Tracé_86" data-name="Tracé 86" d="M535.873,39.39l.635-.933a3.669,3.669,0,0,0,2.394.824c.96,0,1.555-.338,1.555-.906,0-.541-.473-.8-1.676-.947-1.8-.216-2.691-.878-2.691-2,0-1.19,1.136-1.988,2.84-1.988a4.341,4.341,0,0,1,2.623.8l-.582.92a3.3,3.3,0,0,0-1.987-.622c-1.082,0-1.663.311-1.663.878,0,.5.432.757,1.568.906,1.987.257,2.813.853,2.813,2.069s-1.136,2.028-2.826,2.028a4.757,4.757,0,0,1-3-1.027" transform="translate(-437.782 -30.601)" fill="#117ba3"/>
      <path id="Tracé_87" data-name="Tracé 87" d="M549.269,39.532l-2.935-3.042v3.042h-1.257V30.066h1.257v5.666l2.624-2.881h1.582l-2.975,3.218,3.394,3.462Z" transform="translate(-439.793 -29.864)" fill="#117ba3"/>
      <path id="Tracé_88" data-name="Tracé 88" d="M565.42,38.3v1.23h-6.937V30.066h6.855v1.218H559.8v2.853h5.3v1.2h-5.3V38.3Z" transform="translate(-442.722 -29.864)" fill="#117ba3"/>
      <path id="Tracé_89" data-name="Tracé 89" d="M568.857,39.39l.635-.933a3.669,3.669,0,0,0,2.394.824c.96,0,1.555-.338,1.555-.906,0-.541-.473-.8-1.676-.947-1.8-.216-2.691-.878-2.691-2,0-1.19,1.135-1.988,2.84-1.988a4.341,4.341,0,0,1,2.624.8l-.582.92a3.3,3.3,0,0,0-1.987-.622c-1.082,0-1.663.311-1.663.878,0,.5.432.757,1.568.906,1.987.257,2.813.853,2.813,2.069s-1.135,2.028-2.826,2.028a4.757,4.757,0,0,1-3-1.027" transform="translate(-444.989 -30.601)" fill="#117ba3"/>
      <path id="Tracé_90" data-name="Tracé 90" d="M582.274,39.554a3.336,3.336,0,0,1-1.42.31c-1.407,0-2.11-.811-2.11-2.312V34.185h-1.311V33.09h1.311v-1.8l1.244-.136V33.09h2.029v1.095h-2.029v3.367c0,.745.284,1.177,1.014,1.177a2.459,2.459,0,0,0,.906-.216Z" transform="translate(-446.862 -30.102)" fill="#117ba3"/>
      <path id="Tracé_91" data-name="Tracé 91" d="M584.745,30.87a.821.821,0,0,1,.853-.838.832.832,0,1,1-.853.838m.217,1.974h1.257v6.68h-1.257Z" transform="translate(-448.46 -29.856)" fill="#117ba3"/>
      <path id="Tracé_92" data-name="Tracé 92" d="M599.551,36.4v3.881h-1.257v-3.8c0-1.19-.555-1.839-1.569-1.839a1.789,1.789,0,0,0-1.839,1.92v3.718h-1.258v-3.8c0-1.19-.555-1.839-1.569-1.839a1.8,1.8,0,0,0-1.838,1.92v3.718h-1.258V33.6h1.122l.013.865a2.406,2.406,0,0,1,2.029-.986,2.379,2.379,0,0,1,2.231,1.271,2.707,2.707,0,0,1,2.42-1.271,2.629,2.629,0,0,1,2.773,2.921" transform="translate(-449.381 -30.608)" fill="#117ba3"/>
      <path id="Tracé_93" data-name="Tracé 93" d="M611.249,33.589v6.68H610.14l-.013-.986a3.114,3.114,0,0,1-2.542,1.136,3.271,3.271,0,0,1-3.34-3.489,3.271,3.271,0,0,1,3.34-3.489,3.112,3.112,0,0,1,2.542,1.136l.013-.987Zm-1.257,3.34a2.246,2.246,0,1,0-2.245,2.326,2.188,2.188,0,0,0,2.245-2.326" transform="translate(-452.721 -30.601)" fill="#117ba3"/>
      <path id="Tracé_94" data-name="Tracé 94" d="M619.588,39.554a3.337,3.337,0,0,1-1.42.31c-1.407,0-2.11-.811-2.11-2.312V34.185h-1.311V33.09h1.311v-1.8l1.244-.136V33.09h2.029v1.095H617.3v3.367c0,.745.284,1.177,1.014,1.177a2.46,2.46,0,0,0,.906-.216Z" transform="translate(-455.015 -30.102)" fill="#117ba3"/>
      <path id="Tracé_95" data-name="Tracé 95" d="M622.059,30.87a.852.852,0,0,1,1.7,0,.853.853,0,0,1-1.7,0m.217,1.974h1.257v6.68h-1.257Z" transform="translate(-456.613 -29.856)" fill="#117ba3"/>
      <path id="Tracé_96" data-name="Tracé 96" d="M625.717,36.929a3.522,3.522,0,1,1,3.529,3.489,3.362,3.362,0,0,1-3.529-3.489m5.788,0a2.266,2.266,0,1,0-2.258,2.326,2.229,2.229,0,0,0,2.258-2.326" transform="translate(-457.412 -30.601)" fill="#117ba3"/>
      <path id="Tracé_97" data-name="Tracé 97" d="M642.954,36.571v3.705H641.7V36.653c0-1.285-.663-2.015-1.8-2.015a2,2,0,0,0-2.07,2.082v3.557h-1.257V33.6h1.122l.013.934a2.989,2.989,0,0,1,2.38-1.055,2.8,2.8,0,0,1,2.867,3.1" transform="translate(-459.783 -30.608)" fill="#117ba3"/>
      <path id="Tracé_98" data-name="Tracé 98" d="M411.419,49.964v.473h2.055v1.109h-2.055v5.571h-1.257V51.546h-1.285V50.437h1.285v-.473a2.223,2.223,0,0,1,2.326-2.475,2.615,2.615,0,0,1,1.6.541l-.514.907a1.674,1.674,0,0,0-1.014-.352c-.676,0-1.136.406-1.136,1.379" transform="translate(-408.877 -33.462)" fill="#117ba3"/>
      <path id="Tracé_99" data-name="Tracé 99" d="M415.47,54.56A3.522,3.522,0,1,1,419,58.048a3.362,3.362,0,0,1-3.529-3.489m5.788,0A2.266,2.266,0,1,0,419,56.885a2.228,2.228,0,0,0,2.259-2.326" transform="translate(-410.318 -34.245)" fill="#117ba3"/>
      <path id="Tracé_100" data-name="Tracé 100" d="M431.192,51.633l-.568,1.055a2,2,0,0,0-1.135-.352c-1.149,0-1.906.906-1.906,2.285v3.286h-1.258v-6.68h1.122l.014,1.122a2.349,2.349,0,0,1,2.1-1.244,2.626,2.626,0,0,1,1.636.528" transform="translate(-412.69 -34.253)" fill="#117ba3"/>
      <path id="Tracé_101" data-name="Tracé 101" d="M437.743,52.377a4.916,4.916,0,0,1,8.411-3.462l-.906.811a3.409,3.409,0,0,0-2.542-1.041,3.692,3.692,0,0,0,0,7.384,3.783,3.783,0,0,0,2.637-1.055l.865.879a4.9,4.9,0,0,1-3.543,1.406,4.721,4.721,0,0,1-4.922-4.922" transform="translate(-415.185 -33.455)" fill="#117ba3"/>
      <path id="Tracé_102" data-name="Tracé 102" d="M455.05,51.633l-.568,1.055a2,2,0,0,0-1.135-.352c-1.149,0-1.906.906-1.906,2.285v3.286h-1.258v-6.68H451.3l.014,1.122a2.35,2.35,0,0,1,2.1-1.244,2.626,2.626,0,0,1,1.636.528" transform="translate(-417.902 -34.253)" fill="#117ba3"/>
      <path id="Tracé_103" data-name="Tracé 103" d="M456.81,54.56a3.522,3.522,0,1,1,3.529,3.489,3.362,3.362,0,0,1-3.529-3.489m5.788,0a2.266,2.266,0,1,0-2.259,2.326A2.228,2.228,0,0,0,462.6,54.56" transform="translate(-419.35 -34.245)" fill="#117ba3"/>
      <path id="Tracé_104" data-name="Tracé 104" d="M474.047,53.458v3.705H472.79V53.539c0-1.285-.663-2.015-1.8-2.015a2,2,0,0,0-2.07,2.082v3.557h-1.257V47.7h1.257v3.651a2.852,2.852,0,0,1,2.259-.987,2.785,2.785,0,0,1,2.866,3.1" transform="translate(-421.722 -33.508)" fill="#117ba3"/>
      <path id="Tracé_105" data-name="Tracé 105" d="M484.468,54.2v3.705H483.21V54.284c0-1.285-.663-2.015-1.8-2.015a2,2,0,0,0-2.069,2.082v3.557h-1.258v-6.68h1.122l.013.933a2.991,2.991,0,0,1,2.38-1.054,2.8,2.8,0,0,1,2.867,3.1" transform="translate(-423.999 -34.253)" fill="#117ba3"/>
      <path id="Tracé_106" data-name="Tracé 106" d="M489.363,48.288a5.66,5.66,0,0,1-.649,2.042h-.7l.352-1.407a.641.641,0,0,1-.474-.635.714.714,0,0,1,.743-.731.7.7,0,0,1,.731.731" transform="translate(-426.141 -33.477)" fill="#117ba3"/>
      <path id="Tracé_107" data-name="Tracé 107" d="M490.587,57.02l.635-.933a3.669,3.669,0,0,0,2.394.824c.96,0,1.555-.338,1.555-.906,0-.541-.473-.8-1.676-.946-1.8-.216-2.692-.879-2.692-2,0-1.19,1.136-1.988,2.84-1.988a4.341,4.341,0,0,1,2.624.8l-.582.92a3.3,3.3,0,0,0-1.987-.622c-1.082,0-1.663.311-1.663.879,0,.5.432.757,1.569.906,1.987.257,2.813.852,2.813,2.069s-1.136,2.029-2.826,2.029a4.753,4.753,0,0,1-3-1.028" transform="translate(-426.73 -34.245)" fill="#117ba3"/>
      <path id="Tracé_108" data-name="Tracé 108" d="M512.842,52.43a4.508,4.508,0,0,1-4.76,4.733h-3.516V47.7h3.516a4.507,4.507,0,0,1,4.76,4.733m-1.339,0a3.308,3.308,0,0,0-3.421-3.5h-2.2v7h2.2a3.3,3.3,0,0,0,3.421-3.5" transform="translate(-429.785 -33.508)" fill="#117ba3"/>
      <path id="Tracé_109" data-name="Tracé 109" d="M516.872,48.5a.852.852,0,0,1,1.7,0,.81.81,0,0,1-.852.824.818.818,0,0,1-.853-.824m.217,1.974h1.257v6.68h-1.257Z" transform="translate(-432.473 -33.5)" fill="#117ba3"/>
      <path id="Tracé_110" data-name="Tracé 110" d="M520.448,57.02l.635-.933a3.669,3.669,0,0,0,2.394.824c.96,0,1.555-.338,1.555-.906,0-.541-.473-.8-1.676-.946-1.8-.216-2.692-.879-2.692-2,0-1.19,1.136-1.988,2.84-1.988a4.341,4.341,0,0,1,2.624.8l-.582.92a3.3,3.3,0,0,0-1.987-.622c-1.082,0-1.663.311-1.663.879,0,.5.432.757,1.568.906,1.987.257,2.813.852,2.813,2.069s-1.135,2.029-2.826,2.029a4.753,4.753,0,0,1-3-1.028" transform="translate(-433.255 -34.245)" fill="#117ba3"/>
      <path id="Tracé_111" data-name="Tracé 111" d="M535.949,55.064h-5.531a2.078,2.078,0,0,0,2.286,1.852,2.758,2.758,0,0,0,2.028-.784l.811.771a3.831,3.831,0,0,1-2.867,1.177,3.326,3.326,0,0,1-3.557-3.516,3.279,3.279,0,0,1,3.421-3.475c2.3,0,3.6,1.514,3.408,3.976M530.431,54h4.327a1.986,1.986,0,0,0-2.177-1.785A2.03,2.03,0,0,0,530.431,54" transform="translate(-435.149 -34.249)" fill="#117ba3"/>
      <path id="Tracé_112" data-name="Tracé 112" d="M546.17,51.219V57.9h-1.109l-.013-.987a3.111,3.111,0,0,1-2.542,1.136,3.492,3.492,0,0,1,0-6.977,3.111,3.111,0,0,1,2.542,1.136l.013-.987Zm-1.257,3.34a2.246,2.246,0,1,0-2.245,2.326,2.188,2.188,0,0,0,2.245-2.326" transform="translate(-437.344 -34.245)" fill="#117ba3"/>
      <path id="Tracé_113" data-name="Tracé 113" d="M549.84,57.02l.635-.933a3.669,3.669,0,0,0,2.394.824c.96,0,1.555-.338,1.555-.906,0-.541-.473-.8-1.676-.946-1.8-.216-2.692-.879-2.692-2,0-1.19,1.135-1.988,2.84-1.988a4.341,4.341,0,0,1,2.623.8l-.582.92a3.3,3.3,0,0,0-1.987-.622c-1.082,0-1.663.311-1.663.879,0,.5.432.757,1.568.906,1.987.257,2.813.852,2.813,2.069s-1.136,2.029-2.826,2.029a4.753,4.753,0,0,1-3-1.028" transform="translate(-439.677 -34.245)" fill="#117ba3"/>
      <path id="Tracé_114" data-name="Tracé 114" d="M565.341,55.064h-5.532a2.078,2.078,0,0,0,2.285,1.852,2.759,2.759,0,0,0,2.029-.784l.811.771a3.831,3.831,0,0,1-2.867,1.177,3.326,3.326,0,0,1-3.557-3.516,3.279,3.279,0,0,1,3.421-3.475c2.3,0,3.6,1.514,3.408,3.976M559.823,54h4.327a1.986,1.986,0,0,0-2.177-1.785A2.03,2.03,0,0,0,559.823,54" transform="translate(-441.571 -34.249)" fill="#117ba3"/>
    </g>
  </g>
</svg>
