<svg xmlns="http://www.w3.org/2000/svg" width="40.203" height="41.421" viewBox="0 0 40.203 41.421">
  <g id="Groupe_42" data-name="Groupe 42" transform="translate(-1362.284 -44.847)">
    <path id="Tracé_24" data-name="Tracé 24" d="M1135.5,203.491a20.1,20.1,0,0,1,40.2,0v1.218a20.1,20.1,0,0,1-40.2,0Z" transform="translate(226.78 -138.543)" fill="#80ad03"/>
    <path id="Tracé_26" data-name="Tracé 26" d="M1162.429,209.81l-4.872-4.947-1.736,1.71,4.872,4.946Zm-9.986-14.984a5.553,5.553,0,0,1,5.5,5.6h2.437a7.99,7.99,0,0,0-7.937-8.041Zm-5.5,5.6a5.552,5.552,0,0,1,5.5-5.6V192.39a7.989,7.989,0,0,0-7.937,8.041Zm5.5,5.6a5.552,5.552,0,0,1-5.5-5.6h-2.436a7.989,7.989,0,0,0,7.937,8.041Zm5.5-5.6a5.553,5.553,0,0,1-5.5,5.6v2.437a7.989,7.989,0,0,0,7.937-8.041Zm-.386,4.432a1.219,1.219,0,0,0-1.736,1.71Zm3.136,6.657a1.218,1.218,0,1,0,1.736-1.709Z" transform="translate(229.744 -135.579)" fill="#fff"/>
  </g>
</svg>
