<svg xmlns="http://www.w3.org/2000/svg" width="139.23" height="41" viewBox="0 0 139.23 41">
  <g id="Union" transform="translate(-5098.128 -2932)" opacity="0.6">
    <g id="Union_3" data-name="Union 3" transform="translate(5654.506 5548.457)" fill="#e4f8ff">
      <path d="M -419.1480102539062 -2576.456298828125 L -543.9824829101562 -2576.456298828125 C -544.5338134765625 -2576.456298828125 -544.9822998046875 -2576.9052734375 -544.9822998046875 -2577.45703125 L -544.9822998046875 -2587.1826171875 L -544.9822998046875 -2587.6640625 L -545.3587646484375 -2587.96435546875 L -555.3784790039062 -2595.9560546875 L -545.3587646484375 -2603.948486328125 L -544.9822998046875 -2604.248779296875 L -544.9822998046875 -2604.730224609375 L -544.9822998046875 -2614.456787109375 C -544.9822998046875 -2615.008056640625 -544.5338134765625 -2615.45654296875 -543.9824829101562 -2615.45654296875 L -419.1480102539062 -2615.45654296875 C -418.5967102050781 -2615.45654296875 -418.1482238769531 -2615.008056640625 -418.1482238769531 -2614.456787109375 L -418.1482238769531 -2577.45703125 C -418.1482238769531 -2576.9052734375 -418.5967102050781 -2576.456298828125 -419.1480102539062 -2576.456298828125 Z" stroke="none"/>
      <path d="M -419.1480102539062 -2577.456298828125 L -419.1482238769531 -2577.45703125 L -419.1480102539062 -2614.45654296875 L -543.9822998046875 -2614.456787109375 L -543.9822998046875 -2603.76708984375 L -553.775146484375 -2595.956298828125 L -543.9822998046875 -2588.145751953125 L -543.9824829101562 -2577.456298828125 L -419.1480102539062 -2577.456298828125 M -419.1480102539062 -2575.456298828125 L -543.9824829101562 -2575.456298828125 C -545.0867919921875 -2575.456298828125 -545.9822998046875 -2576.351806640625 -545.9822998046875 -2577.45703125 L -545.9822998046875 -2587.1826171875 L -556.0020141601562 -2595.17431640625 C -556.5042114257812 -2595.574951171875 -556.5042114257812 -2596.338134765625 -556.0020141601562 -2596.738525390625 L -545.9822998046875 -2604.730224609375 L -545.9822998046875 -2614.456787109375 C -545.9822998046875 -2615.561279296875 -545.0867919921875 -2616.45654296875 -543.9824829101562 -2616.45654296875 L -419.1480102539062 -2616.45654296875 C -418.043701171875 -2616.45654296875 -417.1482238769531 -2615.561279296875 -417.1482238769531 -2614.456787109375 L -417.1482238769531 -2577.45703125 C -417.1482238769531 -2576.351806640625 -418.043701171875 -2575.456298828125 -419.1480102539062 -2575.456298828125 Z" stroke="none" fill="#117ba3"/>
    </g>
  </g>
</svg>
